<?xml version="1.0" encoding="UTF-8" standalone="no"?>
<!-- Created with Inkscape (http://www.inkscape.org/) -->

<svg
   version="1.1"
   id="svg2"
   xml:space="preserve"
   width="662.66669"
   height="464"
   viewBox="0 0 662.66669 464"
   sodipodi:docname="framestime-1.pdf"
   xmlns:inkscape="http://www.inkscape.org/namespaces/inkscape"
   xmlns:sodipodi="http://sodipodi.sourceforge.net/DTD/sodipodi-0.dtd"
   xmlns="http://www.w3.org/2000/svg"
   xmlns:svg="http://www.w3.org/2000/svg"><defs
     id="defs6"><clipPath
       clipPathUnits="userSpaceOnUse"
       id="clipPath18"><path
         d="M 0,0 H 504 V 360 H 0 Z"
         id="path16" /></clipPath><clipPath
       clipPathUnits="userSpaceOnUse"
       id="clipPath40"><path
         d="M 26.91,28.74 H 498.52 V 354.52 H 26.91 Z"
         id="path38" /></clipPath></defs><sodipodi:namedview
     id="namedview4"
     pagecolor="#ffffff"
     bordercolor="#666666"
     borderopacity="1.0"
     inkscape:pageshadow="2"
     inkscape:pageopacity="0.0"
     inkscape:pagecheckerboard="0" /><g
     id="g8"
     inkscape:groupmode="layer"
     inkscape:label="framestime-1"
     transform="matrix(1.3333333,0,0,-1.3333333,0,464)"><g
       id="g10"
       transform="translate(-5,-7)"><g
         id="g12"><g
           id="g14"
           clip-path="url(#clipPath18)"><g
             id="g20" /><g
             id="g22" /><g
             id="g24" /><g
             id="g26" /><g
             id="g28" /><g
             id="g30" /><g
             id="g32" /><g
             id="g34"><g
               id="g36"
               clip-path="url(#clipPath40)"><path
                 d="M 26.91,43.55 H 498.52"
                 style="fill:none;stroke:#ebebeb;stroke-width:1.07;stroke-linecap:butt;stroke-linejoin:round;stroke-miterlimit:10;stroke-dasharray:none;stroke-opacity:1"
                 id="path42" /><path
                 d="M 26.91,142.27 H 498.52"
                 style="fill:none;stroke:#ebebeb;stroke-width:1.07;stroke-linecap:butt;stroke-linejoin:round;stroke-miterlimit:10;stroke-dasharray:none;stroke-opacity:1"
                 id="path44" /><path
                 d="M 26.91,240.99 H 498.52"
                 style="fill:none;stroke:#ebebeb;stroke-width:1.07;stroke-linecap:butt;stroke-linejoin:round;stroke-miterlimit:10;stroke-dasharray:none;stroke-opacity:1"
                 id="path46" /><path
                 d="M 26.91,339.71 H 498.52"
                 style="fill:none;stroke:#ebebeb;stroke-width:1.07;stroke-linecap:butt;stroke-linejoin:round;stroke-miterlimit:10;stroke-dasharray:none;stroke-opacity:1"
                 id="path48" /><path
                 d="M 26.91,28.74 V 354.52"
                 style="fill:none;stroke:#ebebeb;stroke-width:1.07;stroke-linecap:butt;stroke-linejoin:round;stroke-miterlimit:10;stroke-dasharray:none;stroke-opacity:1"
                 id="path50" /><path
                 d="M 45.81,28.74 V 354.52"
                 style="fill:none;stroke:#ebebeb;stroke-width:1.07;stroke-linecap:butt;stroke-linejoin:round;stroke-miterlimit:10;stroke-dasharray:none;stroke-opacity:1"
                 id="path52" /><path
                 d="M 64.66,28.74 V 354.52"
                 style="fill:none;stroke:#ebebeb;stroke-width:1.07;stroke-linecap:butt;stroke-linejoin:round;stroke-miterlimit:10;stroke-dasharray:none;stroke-opacity:1"
                 id="path54" /><path
                 d="M 83.51,28.74 V 354.52"
                 style="fill:none;stroke:#ebebeb;stroke-width:1.07;stroke-linecap:butt;stroke-linejoin:round;stroke-miterlimit:10;stroke-dasharray:none;stroke-opacity:1"
                 id="path56" /><path
                 d="M 102.36,28.74 V 354.52"
                 style="fill:none;stroke:#ebebeb;stroke-width:1.07;stroke-linecap:butt;stroke-linejoin:round;stroke-miterlimit:10;stroke-dasharray:none;stroke-opacity:1"
                 id="path58" /><path
                 d="M 121.26,28.74 V 354.52"
                 style="fill:none;stroke:#ebebeb;stroke-width:1.07;stroke-linecap:butt;stroke-linejoin:round;stroke-miterlimit:10;stroke-dasharray:none;stroke-opacity:1"
                 id="path60" /><path
                 d="M 140.11,28.74 V 354.52"
                 style="fill:none;stroke:#ebebeb;stroke-width:1.07;stroke-linecap:butt;stroke-linejoin:round;stroke-miterlimit:10;stroke-dasharray:none;stroke-opacity:1"
                 id="path62" /><path
                 d="M 158.96,28.74 V 354.52"
                 style="fill:none;stroke:#ebebeb;stroke-width:1.07;stroke-linecap:butt;stroke-linejoin:round;stroke-miterlimit:10;stroke-dasharray:none;stroke-opacity:1"
                 id="path64" /><path
                 d="M 177.81,28.74 V 354.52"
                 style="fill:none;stroke:#ebebeb;stroke-width:1.07;stroke-linecap:butt;stroke-linejoin:round;stroke-miterlimit:10;stroke-dasharray:none;stroke-opacity:1"
                 id="path66" /><path
                 d="M 196.71,28.74 V 354.52"
                 style="fill:none;stroke:#ebebeb;stroke-width:1.07;stroke-linecap:butt;stroke-linejoin:round;stroke-miterlimit:10;stroke-dasharray:none;stroke-opacity:1"
                 id="path68" /><path
                 d="M 215.56,28.74 V 354.52"
                 style="fill:none;stroke:#ebebeb;stroke-width:1.07;stroke-linecap:butt;stroke-linejoin:round;stroke-miterlimit:10;stroke-dasharray:none;stroke-opacity:1"
                 id="path70" /><path
                 d="M 234.41,28.74 V 354.52"
                 style="fill:none;stroke:#ebebeb;stroke-width:1.07;stroke-linecap:butt;stroke-linejoin:round;stroke-miterlimit:10;stroke-dasharray:none;stroke-opacity:1"
                 id="path72" /><path
                 d="M 253.26,28.74 V 354.52"
                 style="fill:none;stroke:#ebebeb;stroke-width:1.07;stroke-linecap:butt;stroke-linejoin:round;stroke-miterlimit:10;stroke-dasharray:none;stroke-opacity:1"
                 id="path74" /><path
                 d="M 272.17,28.74 V 354.52"
                 style="fill:none;stroke:#ebebeb;stroke-width:1.07;stroke-linecap:butt;stroke-linejoin:round;stroke-miterlimit:10;stroke-dasharray:none;stroke-opacity:1"
                 id="path76" /><path
                 d="M 291.02,28.74 V 354.52"
                 style="fill:none;stroke:#ebebeb;stroke-width:1.07;stroke-linecap:butt;stroke-linejoin:round;stroke-miterlimit:10;stroke-dasharray:none;stroke-opacity:1"
                 id="path78" /><path
                 d="M 309.87,28.74 V 354.52"
                 style="fill:none;stroke:#ebebeb;stroke-width:1.07;stroke-linecap:butt;stroke-linejoin:round;stroke-miterlimit:10;stroke-dasharray:none;stroke-opacity:1"
                 id="path80" /><path
                 d="M 328.72,28.74 V 354.52"
                 style="fill:none;stroke:#ebebeb;stroke-width:1.07;stroke-linecap:butt;stroke-linejoin:round;stroke-miterlimit:10;stroke-dasharray:none;stroke-opacity:1"
                 id="path82" /><path
                 d="M 347.62,28.74 V 354.52"
                 style="fill:none;stroke:#ebebeb;stroke-width:1.07;stroke-linecap:butt;stroke-linejoin:round;stroke-miterlimit:10;stroke-dasharray:none;stroke-opacity:1"
                 id="path84" /><path
                 d="M 366.47,28.74 V 354.52"
                 style="fill:none;stroke:#ebebeb;stroke-width:1.07;stroke-linecap:butt;stroke-linejoin:round;stroke-miterlimit:10;stroke-dasharray:none;stroke-opacity:1"
                 id="path86" /><path
                 d="M 385.32,28.74 V 354.52"
                 style="fill:none;stroke:#ebebeb;stroke-width:1.07;stroke-linecap:butt;stroke-linejoin:round;stroke-miterlimit:10;stroke-dasharray:none;stroke-opacity:1"
                 id="path88" /><path
                 d="M 404.17,28.74 V 354.52"
                 style="fill:none;stroke:#ebebeb;stroke-width:1.07;stroke-linecap:butt;stroke-linejoin:round;stroke-miterlimit:10;stroke-dasharray:none;stroke-opacity:1"
                 id="path90" /><path
                 d="M 423.07,28.74 V 354.52"
                 style="fill:none;stroke:#ebebeb;stroke-width:1.07;stroke-linecap:butt;stroke-linejoin:round;stroke-miterlimit:10;stroke-dasharray:none;stroke-opacity:1"
                 id="path92" /><path
                 d="M 441.92,28.74 V 354.52"
                 style="fill:none;stroke:#ebebeb;stroke-width:1.07;stroke-linecap:butt;stroke-linejoin:round;stroke-miterlimit:10;stroke-dasharray:none;stroke-opacity:1"
                 id="path94" /><path
                 d="M 460.77,28.74 V 354.52"
                 style="fill:none;stroke:#ebebeb;stroke-width:1.07;stroke-linecap:butt;stroke-linejoin:round;stroke-miterlimit:10;stroke-dasharray:none;stroke-opacity:1"
                 id="path96" /><path
                 d="M 479.62,28.74 V 354.52"
                 style="fill:none;stroke:#ebebeb;stroke-width:1.07;stroke-linecap:butt;stroke-linejoin:round;stroke-miterlimit:10;stroke-dasharray:none;stroke-opacity:1"
                 id="path98" /><path
                 d="M 498.52,28.74 V 354.52"
                 style="fill:none;stroke:#ebebeb;stroke-width:1.07;stroke-linecap:butt;stroke-linejoin:round;stroke-miterlimit:10;stroke-dasharray:none;stroke-opacity:1"
                 id="path100" /><path
                 d="m 26.91,129.04 18.9,36.25 18.85,-8.27 18.85,14.55 18.85,43.37 18.9,-44.53 18.85,0.52 18.85,4 18.85,-39.76 18.9,47.38 18.85,-41.72 18.85,-12.26 18.85,-15.97 18.91,28.81 18.85,-1.42 18.85,-31.44 18.85,21.78 18.9,144.97 18.85,-25.39 18.85,-28.93 18.85,-43.5 18.9,42.59 18.85,-54.17 18.85,-25.33 18.85,-5.27 18.9,19.6"
                 style="fill:none;stroke:#ff2600;stroke-width:1.07;stroke-linecap:butt;stroke-linejoin:round;stroke-miterlimit:10;stroke-dasharray:none;stroke-opacity:1"
                 id="path102" /><path
                 d="m 26.91,62.88 18.9,32.02 18.85,-6.77 18.85,8.57 18.85,-12.7 18.9,-11.64 18.85,1.85 18.85,15.61 18.85,-9.27 18.9,8.95 18.85,-13.98 18.85,-8.86 18.85,3.72 18.91,3.7 18.85,2.52 18.85,-8.81 18.85,-2.78 18.9,28.25 18.85,-0.52 18.85,-7.18 18.85,-19.39 18.9,21.69 18.85,-19.74 18.85,9.81 18.85,-9.41 18.9,5.63"
                 style="fill:none;stroke:#b41821;stroke-width:1.07;stroke-linecap:butt;stroke-linejoin:round;stroke-miterlimit:10;stroke-dasharray:none;stroke-opacity:1"
                 id="path104" /><path
                 d="m 26.91,143.29 18.9,12.06 18.85,-0.76 18.85,31.31 18.85,-18.95 18.9,23.41 18.85,13.01 18.85,-6.1 18.85,33.99 18.9,-37.36 18.85,39.25 18.85,-12.55 18.85,1.29 18.91,-12.76 18.85,3.47 18.85,21.56 18.85,-11.46 18.9,-61.88 18.85,13.63 18.85,9.35 18.85,40.69 18.9,-16.41 18.85,24.75 18.85,-0.41 18.85,33.54 18.9,-10.12"
                 style="fill:none;stroke:#85d4e3;stroke-width:1.07;stroke-linecap:butt;stroke-linejoin:round;stroke-miterlimit:10;stroke-dasharray:none;stroke-opacity:1"
                 id="path106" /><path
                 d="m 26.91,110.72 18.9,-18.31 18.85,5.44 18.85,5.78 18.85,-14.84 18.9,17.91 18.85,-1.82 18.85,4.09 18.85,-5.14 18.9,-6.67 18.85,21.15 18.85,-1.3 18.85,-17.04 18.91,9.73 18.85,5.37 18.85,1.75 18.85,1.84 18.9,-1.95 18.85,-15.21 18.85,11.57 18.85,-3.44 18.9,-11.6 18.85,23.95 18.85,9.64 18.85,14.13 18.9,-20.15"
                 style="fill:none;stroke:#046c9a;stroke-width:1.07;stroke-linecap:butt;stroke-linejoin:round;stroke-miterlimit:10;stroke-dasharray:none;stroke-opacity:1"
                 id="path108" /><path
                 d="m 26.91,161.61 18.9,30.19 18.85,-21.81 18.85,-15.52 18.85,30.3 18.9,-39.29 18.85,16.01 18.85,30.46 18.85,18.12 18.9,12.48 18.85,-42.99 18.85,-23.34 18.85,5.3 18.91,-1.71 18.85,9.98 18.85,-3.39 18.85,19.91 18.9,1.82 18.85,32.6 18.85,-45.39 18.85,-22.69 18.9,27.83 18.85,16.8 18.85,-10.55 18.85,-14.26 18.9,4.57"
                 style="fill:none;stroke:#79402f;stroke-width:1.07;stroke-linecap:butt;stroke-linejoin:round;stroke-miterlimit:10;stroke-dasharray:none;stroke-opacity:1"
                 id="path110" /><path
                 d="m 26.91,206.39 18.9,-10.45 18.85,-20.28 18.85,48.6 18.85,2.33 18.9,1.99 18.85,11.94 18.85,-8.15 18.85,5.76 18.9,-10.76 18.85,-10.43 18.85,-37.2 18.85,47.28 18.91,-55.86 18.85,42.52 18.85,-10.92 18.85,-2.92 18.9,0.19 18.85,17.36 18.85,-6.99 18.85,10.54 18.9,-19.03 18.85,19.42 18.85,7.79 18.85,-25.3 18.9,35.09"
                 style="fill:none;stroke:#e1af00;stroke-width:1.07;stroke-linecap:butt;stroke-linejoin:round;stroke-miterlimit:10;stroke-dasharray:none;stroke-opacity:1"
                 id="path112" /><path
                 d="m 26.91,144.3 18.9,-5.51 18.85,1.21 18.85,-19.27 18.85,-3.83 18.9,19.16 18.85,-2.87 18.85,30.04 18.85,-8.37 18.9,-20.82 18.85,-4.02 18.85,30.74 18.85,-2.39 18.91,-18.53 18.85,12.07 18.85,1.82 18.85,-7.54 18.9,-8.12 18.85,-10.73 18.85,1.45 18.85,-6.3 18.9,-1.21 18.85,27.37 18.85,-8.08 18.85,4.02 18.9,-6.62"
                 style="fill:none;stroke:#899da4;stroke-width:1.07;stroke-linecap:butt;stroke-linejoin:round;stroke-miterlimit:10;stroke-dasharray:none;stroke-opacity:1"
                 id="path114" /></g></g><g
             id="g116" /><g
             id="g118" /><g
             id="g120" /><g
             id="g122" /><g
             id="g124" /><g
             id="g126" /><g
             id="g128" /><g
             id="g130" /><g
             id="g132" /><g
             id="g134" /><g
             id="g136" /><g
             id="g138" /><g
             id="g140" /><g
             id="g142" /><g
             id="g144" /><g
             id="g146"><text
               transform="matrix(1,0,0,-1,9.98,40.57)"
               style="font-variant:normal;font-weight:normal;font-size:9px;font-family:'Times New Roman';-inkscape-font-specification:Times-Roman;writing-mode:lr-tb;fill:#4d4d4d;fill-opacity:1;fill-rule:nonzero;stroke:none"
               id="text150"><tspan
                 x="0 4.5"
                 y="0"
                 sodipodi:role="line"
                 id="tspan148">0%</tspan></text><text
               transform="matrix(1,0,0,-1,5.48,139.29)"
               style="font-variant:normal;font-weight:normal;font-size:9px;font-family:'Times New Roman';-inkscape-font-specification:Times-Roman;writing-mode:lr-tb;fill:#4d4d4d;fill-opacity:1;fill-rule:nonzero;stroke:none"
               id="text154"><tspan
                 x="0 4.5 9"
                 y="0"
                 sodipodi:role="line"
                 id="tspan152">20%</tspan></text><text
               transform="matrix(1,0,0,-1,5.48,238.01)"
               style="font-variant:normal;font-weight:normal;font-size:9px;font-family:'Times New Roman';-inkscape-font-specification:Times-Roman;writing-mode:lr-tb;fill:#4d4d4d;fill-opacity:1;fill-rule:nonzero;stroke:none"
               id="text158"><tspan
                 x="0 4.5 9"
                 y="0"
                 sodipodi:role="line"
                 id="tspan156">40%</tspan></text><text
               transform="matrix(1,0,0,-1,5.48,336.73)"
               style="font-variant:normal;font-weight:normal;font-size:9px;font-family:'Times New Roman';-inkscape-font-specification:Times-Roman;writing-mode:lr-tb;fill:#4d4d4d;fill-opacity:1;fill-rule:nonzero;stroke:none"
               id="text162"><tspan
                 x="0 4.5 9"
                 y="0"
                 sodipodi:role="line"
                 id="tspan160">60%</tspan></text></g><g
             id="g164" /><g
             id="g166" /><g
             id="g168" /><g
             id="g170" /><g
             id="g172" /><g
             id="g174" /><g
             id="g176" /><g
             id="g178" /><g
             id="g180" /><g
             id="g182" /><g
             id="g184" /><g
             id="g186" /><g
             id="g188" /><g
             id="g190"><text
               transform="matrix(0.70710678,0.70710678,0.70710678,-0.70710678,18.39,6.87)"
               style="font-variant:normal;font-weight:normal;font-size:8.9944px;font-family:'Times New Roman';-inkscape-font-specification:Times-Roman;writing-mode:lr-tb;fill:#4d4d4d;fill-opacity:1;fill-rule:nonzero;stroke:none"
               id="text194"><tspan
                 x="0 4.4971991 8.9943981 13.491597"
                 y="0"
                 sodipodi:role="line"
                 id="tspan192">1992</tspan></text><text
               transform="matrix(0.70710678,0.70710678,0.70710678,-0.70710678,37.29,6.87)"
               style="font-variant:normal;font-weight:normal;font-size:8.9944px;font-family:'Times New Roman';-inkscape-font-specification:Times-Roman;writing-mode:lr-tb;fill:#4d4d4d;fill-opacity:1;fill-rule:nonzero;stroke:none"
               id="text198"><tspan
                 x="0 4.4971991 8.9943981 13.491597"
                 y="0"
                 sodipodi:role="line"
                 id="tspan196">1993</tspan></text><text
               transform="matrix(0.70710678,0.70710678,0.70710678,-0.70710678,56.14,6.87)"
               style="font-variant:normal;font-weight:normal;font-size:8.9944px;font-family:'Times New Roman';-inkscape-font-specification:Times-Roman;writing-mode:lr-tb;fill:#4d4d4d;fill-opacity:1;fill-rule:nonzero;stroke:none"
               id="text202"><tspan
                 x="0 4.4971991 8.9943981 13.491597"
                 y="0"
                 sodipodi:role="line"
                 id="tspan200">1994</tspan></text><text
               transform="matrix(0.70710678,0.70710678,0.70710678,-0.70710678,74.99,6.87)"
               style="font-variant:normal;font-weight:normal;font-size:8.9944px;font-family:'Times New Roman';-inkscape-font-specification:Times-Roman;writing-mode:lr-tb;fill:#4d4d4d;fill-opacity:1;fill-rule:nonzero;stroke:none"
               id="text206"><tspan
                 x="0 4.4971991 8.9943981 13.491597"
                 y="0"
                 sodipodi:role="line"
                 id="tspan204">1995</tspan></text><text
               transform="matrix(0.70710678,0.70710678,0.70710678,-0.70710678,93.84,6.87)"
               style="font-variant:normal;font-weight:normal;font-size:8.9944px;font-family:'Times New Roman';-inkscape-font-specification:Times-Roman;writing-mode:lr-tb;fill:#4d4d4d;fill-opacity:1;fill-rule:nonzero;stroke:none"
               id="text210"><tspan
                 x="0 4.4971991 8.9943981 13.491597"
                 y="0"
                 sodipodi:role="line"
                 id="tspan208">1996</tspan></text><text
               transform="matrix(0.70710678,0.70710678,0.70710678,-0.70710678,112.75,6.87)"
               style="font-variant:normal;font-weight:normal;font-size:8.9944px;font-family:'Times New Roman';-inkscape-font-specification:Times-Roman;writing-mode:lr-tb;fill:#4d4d4d;fill-opacity:1;fill-rule:nonzero;stroke:none"
               id="text214"><tspan
                 x="0 4.4971991 8.9943981 13.491597"
                 y="0"
                 sodipodi:role="line"
                 id="tspan212">1997</tspan></text><text
               transform="matrix(0.70710678,0.70710678,0.70710678,-0.70710678,131.6,6.87)"
               style="font-variant:normal;font-weight:normal;font-size:8.9944px;font-family:'Times New Roman';-inkscape-font-specification:Times-Roman;writing-mode:lr-tb;fill:#4d4d4d;fill-opacity:1;fill-rule:nonzero;stroke:none"
               id="text218"><tspan
                 x="0 4.4971991 8.9943981 13.491597"
                 y="0"
                 sodipodi:role="line"
                 id="tspan216">1998</tspan></text><text
               transform="matrix(0.70710678,0.70710678,0.70710678,-0.70710678,150.45,6.87)"
               style="font-variant:normal;font-weight:normal;font-size:8.9944px;font-family:'Times New Roman';-inkscape-font-specification:Times-Roman;writing-mode:lr-tb;fill:#4d4d4d;fill-opacity:1;fill-rule:nonzero;stroke:none"
               id="text222"><tspan
                 x="0 4.4971991 8.9943981 13.491597"
                 y="0"
                 sodipodi:role="line"
                 id="tspan220">1999</tspan></text><text
               transform="matrix(0.70710678,0.70710678,0.70710678,-0.70710678,169.3,6.87)"
               style="font-variant:normal;font-weight:normal;font-size:8.9944px;font-family:'Times New Roman';-inkscape-font-specification:Times-Roman;writing-mode:lr-tb;fill:#4d4d4d;fill-opacity:1;fill-rule:nonzero;stroke:none"
               id="text226"><tspan
                 x="0 4.4971991 8.9943981 13.491597"
                 y="0"
                 sodipodi:role="line"
                 id="tspan224">2000</tspan></text><text
               transform="matrix(0.70710678,0.70710678,0.70710678,-0.70710678,188.2,6.87)"
               style="font-variant:normal;font-weight:normal;font-size:8.9944px;font-family:'Times New Roman';-inkscape-font-specification:Times-Roman;writing-mode:lr-tb;fill:#4d4d4d;fill-opacity:1;fill-rule:nonzero;stroke:none"
               id="text230"><tspan
                 x="0 4.4971991 8.9943981 13.491597"
                 y="0"
                 sodipodi:role="line"
                 id="tspan228">2001</tspan></text><text
               transform="matrix(0.70710678,0.70710678,0.70710678,-0.70710678,207.05,6.87)"
               style="font-variant:normal;font-weight:normal;font-size:8.9944px;font-family:'Times New Roman';-inkscape-font-specification:Times-Roman;writing-mode:lr-tb;fill:#4d4d4d;fill-opacity:1;fill-rule:nonzero;stroke:none"
               id="text234"><tspan
                 x="0 4.4971991 8.9943981 13.491597"
                 y="0"
                 sodipodi:role="line"
                 id="tspan232">2002</tspan></text><text
               transform="matrix(0.70710678,0.70710678,0.70710678,-0.70710678,225.9,6.87)"
               style="font-variant:normal;font-weight:normal;font-size:8.9944px;font-family:'Times New Roman';-inkscape-font-specification:Times-Roman;writing-mode:lr-tb;fill:#4d4d4d;fill-opacity:1;fill-rule:nonzero;stroke:none"
               id="text238"><tspan
                 x="0 4.4971991 8.9943981 13.491597"
                 y="0"
                 sodipodi:role="line"
                 id="tspan236">2003</tspan></text><text
               transform="matrix(0.70710678,0.70710678,0.70710678,-0.70710678,244.75,6.87)"
               style="font-variant:normal;font-weight:normal;font-size:8.9944px;font-family:'Times New Roman';-inkscape-font-specification:Times-Roman;writing-mode:lr-tb;fill:#4d4d4d;fill-opacity:1;fill-rule:nonzero;stroke:none"
               id="text242"><tspan
                 x="0 4.4971991 8.9943981 13.491597"
                 y="0"
                 sodipodi:role="line"
                 id="tspan240">2004</tspan></text><text
               transform="matrix(0.70710678,0.70710678,0.70710678,-0.70710678,263.65,6.87)"
               style="font-variant:normal;font-weight:normal;font-size:8.9944px;font-family:'Times New Roman';-inkscape-font-specification:Times-Roman;writing-mode:lr-tb;fill:#4d4d4d;fill-opacity:1;fill-rule:nonzero;stroke:none"
               id="text246"><tspan
                 x="0 4.4971991 8.9943981 13.491597"
                 y="0"
                 sodipodi:role="line"
                 id="tspan244">2005</tspan></text><text
               transform="matrix(0.70710678,0.70710678,0.70710678,-0.70710678,282.5,6.87)"
               style="font-variant:normal;font-weight:normal;font-size:8.9944px;font-family:'Times New Roman';-inkscape-font-specification:Times-Roman;writing-mode:lr-tb;fill:#4d4d4d;fill-opacity:1;fill-rule:nonzero;stroke:none"
               id="text250"><tspan
                 x="0 4.4971991 8.9943981 13.491597"
                 y="0"
                 sodipodi:role="line"
                 id="tspan248">2006</tspan></text><text
               transform="matrix(0.70710678,0.70710678,0.70710678,-0.70710678,301.35,6.87)"
               style="font-variant:normal;font-weight:normal;font-size:8.9944px;font-family:'Times New Roman';-inkscape-font-specification:Times-Roman;writing-mode:lr-tb;fill:#4d4d4d;fill-opacity:1;fill-rule:nonzero;stroke:none"
               id="text254"><tspan
                 x="0 4.4971991 8.9943981 13.491597"
                 y="0"
                 sodipodi:role="line"
                 id="tspan252">2007</tspan></text><text
               transform="matrix(0.70710678,0.70710678,0.70710678,-0.70710678,320.2,6.87)"
               style="font-variant:normal;font-weight:normal;font-size:8.9944px;font-family:'Times New Roman';-inkscape-font-specification:Times-Roman;writing-mode:lr-tb;fill:#4d4d4d;fill-opacity:1;fill-rule:nonzero;stroke:none"
               id="text258"><tspan
                 x="0 4.4971991 8.9943981 13.491597"
                 y="0"
                 sodipodi:role="line"
                 id="tspan256">2008</tspan></text><text
               transform="matrix(0.70710678,0.70710678,0.70710678,-0.70710678,339.1,6.87)"
               style="font-variant:normal;font-weight:normal;font-size:8.9944px;font-family:'Times New Roman';-inkscape-font-specification:Times-Roman;writing-mode:lr-tb;fill:#4d4d4d;fill-opacity:1;fill-rule:nonzero;stroke:none"
               id="text262"><tspan
                 x="0 4.4971991 8.9943981 13.491597"
                 y="0"
                 sodipodi:role="line"
                 id="tspan260">2009</tspan></text><text
               transform="matrix(0.70710678,0.70710678,0.70710678,-0.70710678,357.95,6.87)"
               style="font-variant:normal;font-weight:normal;font-size:8.9944px;font-family:'Times New Roman';-inkscape-font-specification:Times-Roman;writing-mode:lr-tb;fill:#4d4d4d;fill-opacity:1;fill-rule:nonzero;stroke:none"
               id="text266"><tspan
                 x="0 4.4971991 8.9943981 13.491597"
                 y="0"
                 sodipodi:role="line"
                 id="tspan264">2010</tspan></text><text
               transform="matrix(0.70710678,0.70710678,0.70710678,-0.70710678,376.8,6.87)"
               style="font-variant:normal;font-weight:normal;font-size:8.9944px;font-family:'Times New Roman';-inkscape-font-specification:Times-Roman;writing-mode:lr-tb;fill:#4d4d4d;fill-opacity:1;fill-rule:nonzero;stroke:none"
               id="text270"><tspan
                 x="0 4.4971991 8.9943981 13.491597"
                 y="0"
                 sodipodi:role="line"
                 id="tspan268">2011</tspan></text><text
               transform="matrix(0.70710678,0.70710678,0.70710678,-0.70710678,395.65,6.87)"
               style="font-variant:normal;font-weight:normal;font-size:8.9944px;font-family:'Times New Roman';-inkscape-font-specification:Times-Roman;writing-mode:lr-tb;fill:#4d4d4d;fill-opacity:1;fill-rule:nonzero;stroke:none"
               id="text274"><tspan
                 x="0 4.4971991 8.9943981 13.491597"
                 y="0"
                 sodipodi:role="line"
                 id="tspan272">2012</tspan></text><text
               transform="matrix(0.70710678,0.70710678,0.70710678,-0.70710678,414.55,6.87)"
               style="font-variant:normal;font-weight:normal;font-size:8.9944px;font-family:'Times New Roman';-inkscape-font-specification:Times-Roman;writing-mode:lr-tb;fill:#4d4d4d;fill-opacity:1;fill-rule:nonzero;stroke:none"
               id="text278"><tspan
                 x="0 4.4971991 8.9943981 13.491597"
                 y="0"
                 sodipodi:role="line"
                 id="tspan276">2013</tspan></text><text
               transform="matrix(0.70710678,0.70710678,0.70710678,-0.70710678,433.4,6.87)"
               style="font-variant:normal;font-weight:normal;font-size:8.9944px;font-family:'Times New Roman';-inkscape-font-specification:Times-Roman;writing-mode:lr-tb;fill:#4d4d4d;fill-opacity:1;fill-rule:nonzero;stroke:none"
               id="text282"><tspan
                 x="0 4.4971991 8.9943981 13.491597"
                 y="0"
                 sodipodi:role="line"
                 id="tspan280">2014</tspan></text><text
               transform="matrix(0.70710678,0.70710678,0.70710678,-0.70710678,452.25,6.87)"
               style="font-variant:normal;font-weight:normal;font-size:8.9944px;font-family:'Times New Roman';-inkscape-font-specification:Times-Roman;writing-mode:lr-tb;fill:#4d4d4d;fill-opacity:1;fill-rule:nonzero;stroke:none"
               id="text286"><tspan
                 x="0 4.4971991 8.9943981 13.491597"
                 y="0"
                 sodipodi:role="line"
                 id="tspan284">2015</tspan></text><text
               transform="matrix(0.70710678,0.70710678,0.70710678,-0.70710678,471.1,6.87)"
               style="font-variant:normal;font-weight:normal;font-size:8.9944px;font-family:'Times New Roman';-inkscape-font-specification:Times-Roman;writing-mode:lr-tb;fill:#4d4d4d;fill-opacity:1;fill-rule:nonzero;stroke:none"
               id="text290"><tspan
                 x="0 4.4971991 8.9943981 13.491597"
                 y="0"
                 sodipodi:role="line"
                 id="tspan288">2016</tspan></text><text
               transform="matrix(0.70710678,0.70710678,0.70710678,-0.70710678,490.01,6.87)"
               style="font-variant:normal;font-weight:normal;font-size:8.9944px;font-family:'Times New Roman';-inkscape-font-specification:Times-Roman;writing-mode:lr-tb;fill:#4d4d4d;fill-opacity:1;fill-rule:nonzero;stroke:none"
               id="text294"><tspan
                 x="0 4.4971991 8.9943981 13.491597"
                 y="0"
                 sodipodi:role="line"
                 id="tspan292">2017</tspan></text></g><g
             id="g296" /><g
             id="g298" /><g
             id="g300" /><g
             id="g302" /><g
             id="g304" /><g
             id="g306" /><g
             id="g308" /><g
             id="g310" /><g
             id="g312" /><g
             id="g314" /><g
             id="g316" /><g
             id="g318" /><g
             id="g320" /><g
             id="g322" /><g
             id="g324" /><g
             id="g326"><path
               d="m 29.88,220.67 h 107.25 v 137.4 H 29.88 Z"
               style="fill:#ffffff;fill-opacity:0.502;fill-rule:nonzero;stroke:none"
               id="path328" /></g><g
             id="g330" /><g
             id="g332" /><g
             id="g334" /><g
             id="g336" /><g
             id="g338" /><g
             id="g340"><path
               d="M 37.08,338.46 H 50.91"
               style="fill:none;stroke:#ff2600;stroke-width:1.07;stroke-linecap:butt;stroke-linejoin:round;stroke-miterlimit:10;stroke-dasharray:none;stroke-opacity:1"
               id="path342" /></g><g
             id="g344" /><g
             id="g346" /><g
             id="g348" /><g
             id="g350"><path
               d="M 37.08,321.18 H 50.91"
               style="fill:none;stroke:#b41821;stroke-width:1.07;stroke-linecap:butt;stroke-linejoin:round;stroke-miterlimit:10;stroke-dasharray:none;stroke-opacity:1"
               id="path352" /></g><g
             id="g354" /><g
             id="g356" /><g
             id="g358" /><g
             id="g360"><path
               d="M 37.08,303.9 H 50.91"
               style="fill:none;stroke:#85d4e3;stroke-width:1.07;stroke-linecap:butt;stroke-linejoin:round;stroke-miterlimit:10;stroke-dasharray:none;stroke-opacity:1"
               id="path362" /></g><g
             id="g364" /><g
             id="g366" /><g
             id="g368" /><g
             id="g370"><path
               d="M 37.08,286.62 H 50.91"
               style="fill:none;stroke:#046c9a;stroke-width:1.07;stroke-linecap:butt;stroke-linejoin:round;stroke-miterlimit:10;stroke-dasharray:none;stroke-opacity:1"
               id="path372" /></g><g
             id="g374" /><g
             id="g376" /><g
             id="g378" /><g
             id="g380"><path
               d="M 37.08,269.34 H 50.91"
               style="fill:none;stroke:#79402f;stroke-width:1.07;stroke-linecap:butt;stroke-linejoin:round;stroke-miterlimit:10;stroke-dasharray:none;stroke-opacity:1"
               id="path382" /></g><g
             id="g384" /><g
             id="g386" /><g
             id="g388" /><g
             id="g390"><path
               d="M 37.08,252.06 H 50.91"
               style="fill:none;stroke:#e1af00;stroke-width:1.07;stroke-linecap:butt;stroke-linejoin:round;stroke-miterlimit:10;stroke-dasharray:none;stroke-opacity:1"
               id="path392" /></g><g
             id="g394" /><g
             id="g396" /><g
             id="g398" /><g
             id="g400"><path
               d="M 37.08,234.78 H 50.91"
               style="fill:none;stroke:#899da4;stroke-width:1.07;stroke-linecap:butt;stroke-linejoin:round;stroke-miterlimit:10;stroke-dasharray:none;stroke-opacity:1"
               id="path402" /></g><g
             id="g404" /><g
             id="g406" /><g
             id="g408" /><g
             id="g410"><text
               transform="matrix(1,0,0,-1,58.12,335.49)"
               style="font-variant:normal;font-weight:normal;font-size:9px;font-family:'Times New Roman';-inkscape-font-specification:Times-Roman;writing-mode:lr-tb;fill:#000000;fill-opacity:1;fill-rule:nonzero;stroke:none"
               id="text414"><tspan
                 x="0 5.0040002 9.5039997 12.006 14.508 18.504 22.5 24.75 30.708 33.209999 37.709999 40.212002 44.208 48.708 52.703999"
                 y="0"
                 sodipodi:role="line"
                 id="tspan412">Police Violence</tspan></text></g><g
             id="g416" /><g
             id="g418" /><g
             id="g420" /><g
             id="g422" /><g
             id="g424"><text
               transform="matrix(1,0,0,-1,58.12,318.21)"
               style="font-variant:normal;font-weight:normal;font-size:9px;font-family:'Times New Roman';-inkscape-font-specification:Times-Roman;writing-mode:lr-tb;fill:#000000;fill-opacity:1;fill-rule:nonzero;stroke:none"
               id="text428"><tspan
                 x="0 5.4990001 9.4949999 15.993 18.243 25.245001 27.495001 33.993 36.990002 41.490002 45.486"
                 y="0"
                 sodipodi:role="line"
                 id="tspan426">Law &amp; Order</tspan></text></g><g
             id="g430" /><g
             id="g432" /><g
             id="g434" /><g
             id="g436" /><g
             id="g438"><text
               transform="matrix(1,0,0,-1,58.12,300.93)"
               style="font-variant:normal;font-weight:normal;font-size:9px;font-family:'Times New Roman';-inkscape-font-specification:Times-Roman;writing-mode:lr-tb;fill:#000000;fill-opacity:1;fill-rule:nonzero;stroke:none"
               id="text442"><tspan
                 x="0 6.0029998 9.9989996 14.499 18 21.996 24.246 31.247999 33.498001 39.995998 42.993 45.494999 49.265999 53.541 57.536999 62.036999 66.032997 70.028999"
                 y="0"
                 sodipodi:role="line"
                 id="tspan440">Cause &amp; Grievances</tspan></text></g><g
             id="g444" /><g
             id="g446" /><g
             id="g448" /><g
             id="g450" /><g
             id="g452"><text
               transform="matrix(1,0,0,-1,58.12,283.65)"
               style="font-variant:normal;font-weight:normal;font-size:9px;font-family:'Times New Roman';-inkscape-font-specification:Times-Roman;writing-mode:lr-tb;fill:#000000;fill-opacity:1;fill-rule:nonzero;stroke:none"
               id="text456"><tspan
                 x="0 6.0029998 8.5050001 13.005 17.504999 20.007 24.003 28.503 33.002998 36.504002 38.754002 43.757999 46.259998 49.257 53.757 58.257 62.757 65.259003"
                 y="0"
                 sodipodi:role="line"
                 id="tspan454">Righteous Struggle</tspan></text></g><g
             id="g458" /><g
             id="g460" /><g
             id="g462" /><g
             id="g464" /><g
             id="g466"><text
               transform="matrix(1,0,0,-1,58.12,266.37)"
               style="font-variant:normal;font-weight:normal;font-size:9px;font-family:'Times New Roman';-inkscape-font-specification:Times-Roman;writing-mode:lr-tb;fill:#000000;fill-opacity:1;fill-rule:nonzero;stroke:none"
               id="text470"><tspan
                 x="0 5.184 8.1809998 12.681 17.181 21.681 24.183001 28.179001 35.181 39.176998 43.587002 47.583 50.580002"
                 y="0"
                 sodipodi:role="line"
                 id="tspan468">Troublemakers</tspan></text></g><g
             id="g472" /><g
             id="g474" /><g
             id="g476" /><g
             id="g478" /><g
             id="g480"><text
               transform="matrix(1,0,0,-1,58.12,249.09)"
               style="font-variant:normal;font-weight:normal;font-size:9px;font-family:'Times New Roman';-inkscape-font-specification:Times-Roman;writing-mode:lr-tb;fill:#000000;fill-opacity:1;fill-rule:nonzero;stroke:none"
               id="text484"><tspan
                 x="0 6.4980001 10.494 14.49 18.486 22.986 25.236 29.736 32.733002 34.983002 42.984001 47.484001 50.480999 54.477001 56.979"
                 y="0"
                 sodipodi:role="line"
                 id="tspan482">Decay of Morals</tspan></text></g><g
             id="g486" /><g
             id="g488" /><g
             id="g490" /><g
             id="g492" /><g
             id="g494"><text
               transform="matrix(1,0,0,-1,58.12,231.81)"
               style="font-variant:normal;font-weight:normal;font-size:9px;font-family:'Times New Roman';-inkscape-font-specification:Times-Roman;writing-mode:lr-tb;fill:#000000;fill-opacity:1;fill-rule:nonzero;stroke:none"
               id="text498"><tspan
                 x="0 6.4980001 10.998 13.5 17.000999 20.997 25.497 29.493"
                 y="0"
                 sodipodi:role="line"
                 id="tspan496">Nuisance</tspan></text></g><g
             id="g500" /><g
             id="g502" /><g
             id="g504" /><g
             id="g506" /><g
             id="g508" /><g
             id="g510" /><g
             id="g512" /><g
             id="g514" /><g
             id="g516" /><g
             id="g518" /><g
             id="g520" /><g
             id="g522" /><g
             id="g524" /></g></g></g></g></svg>
